<svg width="1366.000000" height="156.000000" viewBox="0 0 1366 156" fill="none" xmlns="http://www.w3.org/2000/svg" xmlns:xlink="http://www.w3.org/1999/xlink">
	<desc>
			Created with Pixso.
	</desc>
	<defs/>
	<rect id="Mask" width="1366.000000" height="156.000000" fill="#5CA5A5" fill-opacity="1.000000"/>
	<rect id="Mask" width="1366.000000" height="156.000000" stroke="#979797" stroke-opacity="0" stroke-width="0.000000"/>
	<mask id="mask0_852" mask-type="alpha" maskUnits="userSpaceOnUse" x="0.000000" y="0.000000" width="1366.000000" height="156.000000">
		<rect id="Mask" width="1366.000000" height="156.000000" fill="#5CA5A5" fill-opacity="1.000000"/>
		<rect id="Mask" width="1366.000000" height="156.000000" stroke="#979797" stroke-opacity="0" stroke-width="0.000000"/>
	</mask>
	<g mask="url(#mask0_852)">
		<mask id="mask_0_857" fill="white">
			<path id="Combined Shape" d="M1028.75 563.441C977.314 614.867 893.931 614.867 842.498 563.441C793.683 514.633 791.188 437.043 835.013 385.293L656.841 563.441C605.407 614.867 522.024 614.867 470.591 563.441C419.147 512.004 419.147 428.601 470.591 377.165L867.249 -19.4379C918.683 -70.8644 1002.07 -70.8643 1053.5 -19.4379C1102.31 29.3698 1104.81 106.96 1060.98 158.71L1239.16 -19.4379C1290.59 -70.8644 1373.97 -70.8643 1425.41 -19.4379C1476.85 31.9987 1476.85 115.402 1425.41 166.838L1028.75 563.441Z" clip-rule="evenodd" fill="" fill-opacity="1.000000" fill-rule="evenodd"/>
		</mask>
		<path id="Combined Shape" d="M1028.75 563.441C977.314 614.867 893.931 614.867 842.498 563.441C793.683 514.633 791.188 437.043 835.013 385.293L656.841 563.441C605.407 614.867 522.024 614.867 470.591 563.441C419.147 512.004 419.147 428.601 470.591 377.165L867.249 -19.4379C918.683 -70.8644 1002.07 -70.8643 1053.5 -19.4379C1102.31 29.3698 1104.81 106.96 1060.98 158.71L1239.16 -19.4379C1290.59 -70.8644 1373.97 -70.8643 1425.41 -19.4379C1476.85 31.9987 1476.85 115.402 1425.41 166.838L1028.75 563.441Z" clip-rule="evenodd" fill="#63BABA" fill-opacity="1.000000" fill-rule="evenodd" mask="url(#mask_0_857)"/>
		<path id="Combined Shape" d="" fill="#979797" fill-opacity="0.000000" fill-rule="nonzero"/>
		<mask id="mask_0_860" fill="white">
			<path id="Combined Shape Copy" d="M-102.41 117.441C-50.9759 168.867 32.4069 168.867 83.8405 117.441L480.499 -279.162C531.943 -330.598 531.943 -414.001 480.499 -465.438C429.065 -516.864 345.683 -516.864 294.249 -465.438L-102.41 -68.8351C-153.853 -17.3984 -153.853 66.0045 -102.41 117.441ZM528.532 45.6168C477.099 97.0432 393.716 97.0432 342.282 45.6168C290.839 -5.81976 290.839 -89.2227 342.282 -140.659L738.941 -537.262C790.375 -588.688 873.757 -588.688 925.191 -537.262C976.635 -485.825 976.635 -402.423 925.191 -350.986L528.532 45.6168Z" clip-rule="evenodd" fill="" fill-opacity="1.000000" fill-rule="evenodd"/>
		</mask>
		<path id="Combined Shape Copy" d="M-102.41 117.441C-50.9759 168.867 32.4069 168.867 83.8405 117.441L480.499 -279.162C531.943 -330.598 531.943 -414.001 480.499 -465.438C429.065 -516.864 345.683 -516.864 294.249 -465.438L-102.41 -68.8351C-153.853 -17.3984 -153.853 66.0045 -102.41 117.441ZM528.532 45.6168C477.099 97.0432 393.716 97.0432 342.282 45.6168C290.839 -5.81976 290.839 -89.2227 342.282 -140.659L738.941 -537.262C790.375 -588.688 873.757 -588.688 925.191 -537.262C976.635 -485.825 976.635 -402.423 925.191 -350.986L528.532 45.6168Z" clip-rule="evenodd" fill="#63BABA" fill-opacity="1.000000" fill-rule="evenodd" mask="url(#mask_0_860)"/>
		<path id="Combined Shape Copy" d="" fill="#979797" fill-opacity="0.000000" fill-rule="nonzero"/>
	</g>
</svg>
